{"title":"Love Is All You Need 2012 BRRip 720p x264 AAC - PRiSTiNE [P2PDL]","uid":8217539,"size":662936986,"categoryP":"video","categoryS":"hd___movies","magnet":"?xt=urn:btih:879afe637a11acd7433700444dbe5a4982d558cd&amp;dn=Love+Is+All+You+Need+2012+BRRip+720p+x264+AAC+-+PRiSTiNE+%5BP2PDL%5D&amp;tr=udp%3A%2F%2Ftracker.openbittorrent.com%3A80&amp;tr=udp%3A%2F%2Fopen.demonii.com%3A1337&amp;tr=udp%3A%2F%2Ftracker.coppersurfer.tk%3A6969&amp;tr=udp%3A%2F%2Fexodus.desync.com%3A6969","seeders":13,"leechers":2,"uploader":"Vitamin_X","files":-1,"time":1362377232,"description":"_________________________  Visit us at _________________________\n  &lt;a href=&quot;\nhttp://p2pdl.com&quot; rel=&quot;nofollow&quot; target=&quot;_NEW&quot;&gt;\nhttp://p2pdl.com&lt;/a&gt;  ____________________________ &lt;a href=&quot; http://p2pdl.com&quot; rel=&quot;nofollow&quot; target=&quot;_NEW&quot;&gt; http://p2pdl.com&lt;/a&gt;\n\nLove Is All You Need 2012 BRRip 720p x264 AAC - PRiSTiNE\n\nGenre: Comedy | Romance\nPlot: A hairdresser who has lost her hair to cancer finds out her \nhusband is having an affair, travels to Italy for her daughter's \nwedding and meets a widower who still blames the world for the loss \nof his wife.\nDirector: Susanne Bier\nStars: Pierce Brosnan, Trine Dyrholm, Kim Bodnia \nRated: Rated R for brief sexuality, nudity and some language.\n\nInfo: &lt;a href=&quot;\nhttp://www.imdb.com/title/tt1854236/&quot; rel=&quot;nofollow&quot; target=&quot;_NEW&quot;&gt;\nhttp://www.imdb.com/title/tt1854236/&lt;/a&gt;\n\nGeneral\nComplete name                  : Love Is All You Need 2012 BRRip 720p x264 AAC - PRiSTiNE.mp4\nFormat                         : MPEG-4\nFormat profile                 : Base Media\nCodec ID                       : isom\nFile size                      : 625 MiB\nDuration                       : 1h 51mn\nOverall bit rate mode          : Variable\nOverall bit rate               : 786 Kbps\n\nVideo\nID                             : 1\nFormat                         : AVC\nFormat/Info                    : Advanced Video Codec\nFormat profile                 : High &lt;a class=&quot;__cf_email__&quot; href=&quot;/cdn-cgi/l/email-protection&quot; data-cfemail=&quot;ba8b8afaf68e948b&quot;&gt;[email&amp;#160;protected]&lt;/a&gt;&lt;script cf-hash='f9e31' type=&quot;text/javascript&quot;&gt;\n/* &lt;![CDATA[ */!function(){try{var t=&quot;currentScript&quot;in document?document.currentScript:function(){for(var t=document.getElementsByTagName(&quot;script&quot;),e=t.length;e--;)if(t[e].getAttribute(&quot;cf-hash&quot;))return t[e]}();if(t&amp;&amp;t.previousSibling){var e,r,n,i,c=t.previousSibling,a=c.getAttribute(&quot;data-cfemail&quot;);if(a){for(e=&quot;&quot;,r=parseInt(a.substr(0,2),16),n=2;a.length-n;n+=2)i=parseInt(a.substr(n,2),16)^r,e+=String.fromCharCode(i);e=document.createTextNode(e),c.parentNode.replaceChild(e,c)}}}catch(u){}}();/* ]]&gt; */&lt;/script&gt;\nDuration                       : 1h 51mn\nBit rate                       : 699 Kbps\nMaximum bit rate               : 7 345 Kbps\nWidth                          : 1 280 pixels\nHeight                         : 544 pixels\nDisplay aspect ratio           : 2.35:1\nFrame rate mode                : Constant\nFrame rate                     : 25.000 fps\nBit depth                      : 10 bits\nStream size                    : 556 MiB (89%)\nWriting library                : x264 core 129 r2245 bc13772\n\nAudio\nFormat                         : AAC\nDuration                       : 1h 51mn\nBit rate mode                  : Variable\nBit rate                       : 84.0 Kbps\nChannel(s)                     : 2 channels\nChannel positions              : Front: L R\nSampling rate                  : 48.0 KHz / 24.0 KHz\nStream size                    : 66.8 MiB (11%)\nLanguage                       : Danish\n\nSubtitle                       : Yes ( English)\n\nScreens: &lt;a href=&quot;\nhttp://ultraimg.com/images/D8MkW.jpg&quot; rel=&quot;nofollow&quot; target=&quot;_NEW&quot;&gt;\nhttp://ultraimg.com/images/D8MkW.jpg&lt;/a&gt; &lt;a href=&quot;\nhttp://ultraimg.com/images/ZGnR8.jpg&quot; rel=&quot;nofollow&quot; target=&quot;_NEW&quot;&gt;\nhttp://ultraimg.com/images/ZGnR8.jpg&lt;/a&gt; &lt;a href=&quot;\nhttp://ultraimg.com/images/ytCw8.jpg&quot; rel=&quot;nofollow&quot; target=&quot;_NEW&quot;&gt;\nhttp://ultraimg.com/images/ytCw8.jpg&lt;/a&gt; &lt;a href=&quot;\nhttp://ultraimg.com/images/kZCo2.jpg&quot; rel=&quot;nofollow&quot; target=&quot;_NEW&quot;&gt;\nhttp://ultraimg.com/images/kZCo2.jpg&lt;/a&gt;\n\nThumbs: &lt;a href=&quot;\nhttp://ultraimg.com/images/FIfy.jpg&quot; rel=&quot;nofollow&quot; target=&quot;_NEW&quot;&gt;\nhttp://ultraimg.com/images/FIfy.jpg&lt;/a&gt;\n----------------------------------------------------------------------------------------------------\nEncoded using revolutionary 10bit encoding, which enables us to provide you more crispier \nand sharper images at small sizes, just make sure you follow our instructions without a fault.\nRecommend to you to use latest version of VLC player. Install K-Lite Codec Pack or shark007 codecs\nin case of any kind of problem in playback (For non-VLC Media Player users). Alternatively, install\nCore AVC codecs, the fastest decoder that there is coupled with Community Center Codec Pack and play\non Windows Media Player Classic. Check sample to be sure.\nEnjoy!","torrent":{"xt":"urn:btih:879afe637a11acd7433700444dbe5a4982d558cd","amp;dn":"Love+Is+All+You+Need+2012+BRRip+720p+x264+AAC+-+PRiSTiNE+%5BP2PDL%5D","amp;tr":["udp%3A%2F%2Ftracker.openbittorrent.com%3A80","udp%3A%2F%2Fopen.demonii.com%3A1337","udp%3A%2F%2Ftracker.coppersurfer.tk%3A6969","udp%3A%2F%2Fexodus.desync.com%3A6969"],"infoHash":"879afe637a11acd7433700444dbe5a4982d558cd","infoHashBuffer":{"type":"Buffer","data":[135,154,254,99,122,17,172,215,67,55,0,68,77,190,90,73,130,213,88,205]},"announce":[],"urlList":[]}}